<svg width="24" height="24" viewBox="0 0 24 24" fill="none" xmlns="http://www.w3.org/2000/svg">
<path d="M11.8074 18.7975C12.2118 18.7975 12.5536 18.6579 12.8329 18.3786C13.1121 18.0994 13.2517 17.7576 13.2517 17.3532C13.2517 16.9488 13.1121 16.607 12.8329 16.3278C12.5536 16.0486 12.2118 15.9089 11.8074 15.9089C11.403 15.9089 11.0612 16.0486 10.782 16.3278C10.5028 16.607 10.3632 16.9488 10.3632 17.3532C10.3632 17.7576 10.5028 18.0994 10.782 18.3786C11.0612 18.6579 11.403 18.7975 11.8074 18.7975ZM11.8652 23.4192C10.2669 23.4192 8.76483 23.1159 7.35908 22.5093C5.95332 21.9027 4.7305 21.0794 3.69063 20.0396C2.65075 18.9997 1.82752 17.7769 1.22093 16.3711C0.614332 14.9654 0.311035 13.4633 0.311035 11.865C0.311035 10.2667 0.614332 8.76462 1.22093 7.35886C1.82752 5.95311 2.65075 4.73029 3.69063 3.69042C4.7305 2.65054 5.95332 1.82731 7.35908 1.22071C8.76483 0.614118 10.2669 0.310822 11.8652 0.310822C13.4635 0.310822 14.9656 0.614118 16.3713 1.22071C17.7771 1.82731 18.9999 2.65054 20.0398 3.69042C21.0796 4.73029 21.9029 5.95311 22.5095 7.35886C23.1161 8.76462 23.4194 10.2667 23.4194 11.865C23.4194 13.4633 23.1161 14.9654 22.5095 16.3711C21.9029 17.7769 21.0796 18.9997 20.0398 20.0396C18.9999 21.0794 17.7771 21.9027 16.3713 22.5093C14.9656 23.1159 13.4635 23.4192 11.8652 23.4192ZM11.8652 21.1083C14.4456 21.1083 16.6313 20.2129 18.4222 18.422C20.2131 16.6311 21.1085 14.4454 21.1085 11.865C21.1085 9.28456 20.2131 7.09889 18.4222 5.308C16.6313 3.5171 14.4456 2.62165 11.8652 2.62165C9.28477 2.62165 7.09911 3.5171 5.30821 5.308C3.51732 7.09889 2.62187 9.28456 2.62187 11.865C2.62187 14.4454 3.51732 16.6311 5.30821 18.422C7.09911 20.2129 9.28477 21.1083 11.8652 21.1083ZM11.9807 6.8967C12.4622 6.8967 12.881 7.05075 13.2373 7.35886C13.5935 7.66697 13.7716 8.05211 13.7716 8.51428C13.7716 8.93793 13.6417 9.31344 13.3817 9.64081C13.1217 9.96818 12.828 10.2763 12.5007 10.5651C12.0578 10.9503 11.6678 11.3739 11.3308 11.8361C10.9938 12.2983 10.8253 12.8182 10.8253 13.3959C10.8253 13.6655 10.9264 13.8918 11.1286 14.0747C11.3308 14.2577 11.5667 14.3491 11.8363 14.3491C12.1252 14.3491 12.3707 14.2528 12.5729 14.0603C12.7751 13.8677 12.9051 13.627 12.9628 13.3381C13.0399 12.9337 13.2132 12.5727 13.4828 12.2549C13.7524 11.9372 14.0412 11.6339 14.3493 11.3451C14.7923 10.9214 15.1726 10.4592 15.4903 9.95855C15.8081 9.45787 15.9669 8.89942 15.9669 8.2832C15.9669 7.30109 15.5673 6.49712 14.7682 5.87126C13.969 5.24541 13.0399 4.93249 11.9807 4.93249C11.249 4.93249 10.5509 5.08654 9.88655 5.39465C9.22219 5.70277 8.71669 6.17456 8.37007 6.81004C8.23527 7.04112 8.19194 7.28665 8.24008 7.54662C8.28822 7.80659 8.41821 8.00397 8.63004 8.13877C8.89963 8.29283 9.17886 8.34097 9.46771 8.2832C9.75657 8.22543 9.99728 8.06174 10.1898 7.79214C10.4017 7.50329 10.6665 7.28184 10.9842 7.12778C11.3019 6.97372 11.6341 6.8967 11.9807 6.8967Z" fill="white"/>
</svg>
