<svg width="21" height="22" viewBox="0 0 21 22" fill="none" xmlns="http://www.w3.org/2000/svg">
<path d="M2.77714 21.7237C2.14166 21.7237 1.59765 21.4975 1.14512 21.0449C0.692578 20.5924 0.466309 20.0484 0.466309 19.4129V3.23707C0.466309 2.60159 0.692578 2.05758 1.14512 1.60505C1.59765 1.15251 2.14166 0.926239 2.77714 0.926239H9.70964C10.037 0.926239 10.3114 1.03697 10.5329 1.25842C10.7543 1.47988 10.8651 1.75429 10.8651 2.08166C10.8651 2.40902 10.7543 2.68344 10.5329 2.90489C10.3114 3.12634 10.037 3.23707 9.70964 3.23707H2.77714V19.4129H9.70964C10.037 19.4129 10.3114 19.5236 10.5329 19.7451C10.7543 19.9665 10.8651 20.241 10.8651 20.5683C10.8651 20.8957 10.7543 21.1701 10.5329 21.3916C10.3114 21.613 10.037 21.7237 9.70964 21.7237H2.77714ZM16.8443 12.4804H8.55422C8.22686 12.4804 7.95245 12.3697 7.73099 12.1482C7.50954 11.9268 7.39881 11.6524 7.39881 11.325C7.39881 10.9976 7.50954 10.7232 7.73099 10.5018C7.95245 10.2803 8.22686 10.1696 8.55422 10.1696H16.8443L14.6779 8.00317C14.4661 7.79134 14.3602 7.53137 14.3602 7.22326C14.3602 6.91515 14.4661 6.64555 14.6779 6.41447C14.8898 6.18338 15.1594 6.06303 15.4867 6.0534C15.8141 6.04377 16.0933 6.1545 16.3244 6.38558L20.455 10.5162C20.6861 10.7473 20.8016 11.0169 20.8016 11.325C20.8016 11.6331 20.6861 11.9027 20.455 12.1338L16.3244 16.2644C16.0933 16.4955 15.8189 16.6062 15.5012 16.5966C15.1834 16.5869 14.909 16.4666 14.6779 16.2355C14.4661 16.0044 14.365 15.73 14.3746 15.4123C14.3843 15.0945 14.495 14.8298 14.7068 14.6179L16.8443 12.4804Z" fill="white"/>
</svg>
