<svg width="23" height="24" viewBox="0 0 23 24" fill="none" xmlns="http://www.w3.org/2000/svg">
<path d="M10.5072 23.1491C9.98725 23.1491 9.53953 22.9758 9.16401 22.6292C8.7885 22.2826 8.56223 21.8589 8.48521 21.3582L8.22524 19.4518C7.9749 19.3555 7.739 19.24 7.51755 19.1052C7.29609 18.9704 7.07945 18.826 6.86762 18.6719L5.07673 19.4229C4.5953 19.6347 4.11388 19.654 3.63246 19.4807C3.15103 19.3074 2.77552 18.9993 2.50593 18.5564L1.14831 16.1877C0.878714 15.7448 0.801686 15.273 0.917228 14.7724C1.03277 14.2717 1.29274 13.8577 1.69713 13.5303L3.22806 12.3749C3.2088 12.2401 3.19918 12.1101 3.19918 11.9849V11.205C3.19918 11.0798 3.2088 10.9499 3.22806 10.8151L1.69713 9.65965C1.29274 9.33228 1.03277 8.91825 0.917228 8.41757C0.801686 7.91689 0.878714 7.4451 1.14831 7.00219L2.50593 4.63358C2.77552 4.19067 3.15103 3.88256 3.63246 3.70925C4.11388 3.53594 4.5953 3.55519 5.07673 3.76702L6.86762 4.51804C7.07945 4.36399 7.30091 4.21956 7.53199 4.08476C7.76307 3.94996 7.99416 3.83442 8.22524 3.73814L8.48521 1.8317C8.56223 1.33102 8.7885 0.907364 9.16401 0.56074C9.53953 0.214115 9.98725 0.040802 10.5072 0.040802H13.2224C13.7424 0.040802 14.1901 0.214115 14.5656 0.56074C14.9411 0.907364 15.1674 1.33102 15.2444 1.8317L15.5044 3.73814C15.7547 3.83442 15.9906 3.94996 16.2121 4.08476C16.4335 4.21956 16.6502 4.36399 16.862 4.51804L18.6529 3.76702C19.1343 3.55519 19.6157 3.53594 20.0971 3.70925C20.5786 3.88256 20.9541 4.19067 21.2237 4.63358L22.5813 7.00219C22.8509 7.4451 22.9279 7.91689 22.8124 8.41757C22.6968 8.91825 22.4369 9.33228 22.0325 9.65965L20.5015 10.8151C20.5208 10.9499 20.5304 11.0798 20.5304 11.205V11.9849C20.5304 12.1101 20.5112 12.2401 20.4727 12.3749L22.0036 13.5303C22.408 13.8577 22.6679 14.2717 22.7835 14.7724C22.899 15.273 22.822 15.7448 22.5524 16.1877L21.1659 18.5564C20.8963 18.9993 20.5208 19.3074 20.0394 19.4807C19.558 19.654 19.0765 19.6347 18.5951 19.4229L16.862 18.6719C16.6502 18.826 16.4287 18.9704 16.1976 19.1052C15.9665 19.24 15.7354 19.3555 15.5044 19.4518L15.2444 21.3582C15.1674 21.8589 14.9411 22.2826 14.5656 22.6292C14.1901 22.9758 13.7424 23.1491 13.2224 23.1491H10.5072ZM10.7094 20.8383H12.9913L13.3957 17.7764C13.9927 17.6224 14.5463 17.3961 15.0566 17.0976C15.5669 16.7992 16.0339 16.4381 16.4576 16.0144L19.3172 17.1987L20.4438 15.2345L17.9596 13.357C18.0559 13.0874 18.1233 12.8033 18.1618 12.5049C18.2003 12.2064 18.2196 11.9031 18.2196 11.595C18.2196 11.2869 18.2003 10.9836 18.1618 10.6851C18.1233 10.3866 18.0559 10.1026 17.9596 9.83296L20.4438 7.95541L19.3172 5.9912L16.4576 7.20439C16.0339 6.76148 15.5669 6.39078 15.0566 6.0923C14.5463 5.79381 13.9927 5.56754 13.3957 5.41349L13.0202 2.35164H10.7383L10.3339 5.41349C9.73691 5.56754 9.18327 5.79381 8.67296 6.0923C8.16265 6.39078 7.69567 6.75185 7.27202 7.1755L4.41236 5.9912L3.28583 7.95541L5.76998 9.80407C5.67369 10.0929 5.60629 10.3818 5.56778 10.6706C5.52927 10.9595 5.51001 11.2676 5.51001 11.595C5.51001 11.9031 5.52927 12.2016 5.56778 12.4904C5.60629 12.7793 5.67369 13.0681 5.76998 13.357L3.28583 15.2345L4.41236 17.1987L7.27202 15.9856C7.69567 16.4285 8.16265 16.7992 8.67296 17.0976C9.18327 17.3961 9.73691 17.6224 10.3339 17.7764L10.7094 20.8383ZM11.9226 15.6389C13.0395 15.6389 13.9927 15.2442 14.7822 14.4546C15.5718 13.6651 15.9665 12.7119 15.9665 11.595C15.9665 10.4781 15.5718 9.52485 14.7822 8.73531C13.9927 7.94578 13.0395 7.55101 11.9226 7.55101C10.7864 7.55101 9.82838 7.94578 9.04847 8.73531C8.26857 9.52485 7.87861 10.4781 7.87861 11.595C7.87861 12.7119 8.26857 13.6651 9.04847 14.4546C9.82838 15.2442 10.7864 15.6389 11.9226 15.6389Z" fill="white"/>
</svg>
