<svg width="52" height="52" viewBox="0 0 52 52" fill="none" xmlns="http://www.w3.org/2000/svg">
<path d="M44.027 33.464C42.868 36.248 46.475 42.293 44.384 44.384C42.293 46.475 36.248 42.867 33.464 44.027C30.777 45.132 29.087 52 26 52C24.418 52 23.216 50.212 22.046 48.306C20.93 46.486 19.847 44.568 18.536 44.027C17.193 43.464 15.091 44.016 13.033 44.504C10.834 45.024 8.7 45.468 7.616 44.385C5.525 42.294 9.133 36.249 7.973 33.465C6.868 30.777 0 29.087 0 26C0 22.913 6.868 21.223 7.973 18.536C9.132 15.752 5.525 9.707 7.616 7.616C9.707 5.525 15.752 9.133 18.536 7.973C21.223 6.868 22.913 0 26 0C29.087 0 30.777 6.868 33.464 7.973C34.786 8.526 36.833 8.006 38.859 7.529C41.091 6.987 43.279 6.511 44.384 7.616C45.489 8.721 45.012 10.909 44.471 13.141C43.994 15.167 43.474 17.214 44.027 18.536C45.132 21.223 52 22.913 52 26C52 29.087 45.132 30.777 44.027 33.464Z" fill="#FFCE29"/>
</svg>
